<svg width="20" height="20" viewBox="0 0 20 20" fill="none" xmlns="http://www.w3.org/2000/svg">
<path d="M18.4917 1.50835C18.2078 1.22572 17.8709 1.00212 17.5002 0.850475C17.1294 0.698834 16.7323 0.622154 16.3318 0.624866C15.9313 0.627578 15.5353 0.709628 15.1667 0.866275C14.7981 1.02293 14.4641 1.25107 14.1842 1.53752L2.10083 13.6208L0.625 19.375L6.37917 17.8992L18.4625 5.81585C18.7489 5.53591 18.9771 5.20197 19.1338 4.83334C19.2904 4.46472 19.3724 4.06871 19.3752 3.66818C19.3778 3.26766 19.3012 2.87057 19.1496 2.49986C18.9979 2.12914 18.7743 1.79215 18.4917 1.50835Z" stroke="white" stroke-width="1.5" stroke-linecap="round" stroke-linejoin="round"/>
<path d="M13.8383 1.88334L18.1167 6.16167" stroke="white" stroke-width="1.5" stroke-linecap="round" stroke-linejoin="round"/>
<path d="M12.0933 3.62833L16.3717 7.90667" stroke="white" stroke-width="1.5" stroke-linecap="round" stroke-linejoin="round"/>
<path d="M2.10083 13.6208L6.38333 17.895" stroke="white" stroke-width="1.5" stroke-linecap="round" stroke-linejoin="round"/>
</svg>
